# xmcd
#
# Track frame offsets: 
#        300
#        19459
#        41029
#        64545
#        86766
#        102115
#        128447
#        148489
#        172723
#        187220
#        212200
#        242968
#
# Disc length: 3595 seconds
#
# Revision: 11
# Processed by: cddbd v1.5.2PL0 Copyright (c) Steve Scherf et al.
# Submitted via: ExactAudioCopy v1.0b1
#
DISCID=b10e070c
DTITLE=Robert Cray - Take Your Shoes Off
DYEAR=1999
DGENRE=Blues
TTITLE0=Love Gone To Waste
TTITLE1=That Wasn't Me
TTITLE2=All The Way
TTITLE3=There's Nothing Wrong
TTITLE4=24-7 Man
TTITLE5=Pardon
TTITLE6=Let Me Know
TTITLE7=It's All Gone
TTITLE8=Won't You Give Him (One More Chance)
TTITLE9=Living Proof
TTITLE10=What About Me
TTITLE11=Tollin' Bells
EXTD=YEAR: 1999
EXTT0=
EXTT1=
EXTT2=
EXTT3=
EXTT4=
EXTT5=
EXTT6=
EXTT7=
EXTT8=
EXTT9=
EXTT10=
EXTT11=
PLAYORDER=
